<svg width="100%" height="100%" overflow="visible" style="display: block;" viewBox="0 0 64.796 113.389" fill="none" xmlns="http://www.w3.org/2000/svg">
<g id="Cory">
<ellipse id="Ellipse 3" cx="32.2435" cy="109.204" rx="22.5125" ry="4.18542" fill="var(--fill-0, #D6D6D6)"/>
<g id="Group 8">
<g id="Vector 148">
<path d="M14.1234 63.1952C10.906 57.6477 12.6811 52.7659 14.1234 44.6666C15.5658 36.5673 14.4562 31.9074 11.5715 26.5818C8.68683 21.2562 11.2387 16.9292 14.1235 15.8197C16.2982 14.9833 22.8885 15.4868 25.2184 26.5818C27.5484 37.6768 30.7659 32.1293 30.7659 29.3555C30.7659 26.5818 25.2184 15.3759 25.2184 11.1598C25.2184 6.94373 26.9936 3.61524 30.7659 3.61524C34.5382 3.61524 35.4168 9.43435 35.5277 14.4271C35.6387 19.4198 39.0871 8.60797 39.6419 5.05758C40.7687 -2.15414 49.4054 1.72909 47.0755 7.05468C44.7456 12.3803 35.5367 31.1307 41.3061 30.2431C47.0755 29.3555 45.709 23.5287 47.0755 20.5905C49.2944 15.8197 57.3938 17.373 53.1777 27.8022C48.9616 38.2315 46.6317 39.2301 50.7368 37.5658C54.842 35.9016 56.8391 33.6826 56.8391 37.5658C56.8391 41.4491 49.7383 41.56 50.7368 48.217C51.7354 54.874 51.0194 60.9426 47.8521 64.6375C46.5207 66.1908 45.3283 67.1992 43.7418 68.1732C44.3381 69.2495 42.953 67.5648 43.7418 69.5408C48.2638 65.0708 53.4254 62.3961 56.8391 61.1981C58.5837 60.5858 64.0548 66.1776 63.6663 68.1732C62.9518 71.843 53.6792 77.3456 47.8521 79.4619C48.699 82.7134 49.3229 86.0633 49.2944 88.7136C49.2752 90.4995 48.9302 92.0429 48.3343 93.3735C47.3626 95.5431 45.7237 97.1472 43.7418 98.3153C52.2346 98.3153 47.2318 104.868 45.4868 105.979C43.7418 107.091 40.6636 108.067 38.9771 107.091C37.2907 106.114 33.8354 102.657 34.5381 100.918C32.6931 101.187 32.4184 101.165 30.7659 101.14C30.3955 101.134 30.0255 101.125 29.6563 101.111C30.6327 105.437 34.5381 108.52 32.6262 110.266C30.7031 110.969 26.1221 111.952 23.8144 110.266C21.5066 108.58 18.8202 100.721 19.7818 98.514C17.0714 96.7028 15.0044 93.6885 14.1234 88.7136C13.7008 86.3266 14.4272 82.0216 14.7891 79.7267C9.05669 75.986 -1.55677 69.253 1.72734 64.6375C5.83247 58.8681 6.57882 60.1995 8.24307 61.1981C9.57446 61.9969 16.4644 65.3617 18.8924 69.5408C19.867 67.5465 18.9734 69.2329 19.7818 68.1732C17.4476 67.0333 15.4119 65.4167 14.1234 63.1952Z" fill="var(--fill-0, #FFA56D)"/>
<path d="M19.7818 68.1732C23.2764 69.8797 27.4399 70.5178 30.7659 70.5178C37.9755 70.5178 41.3997 69.6109 43.7418 68.1732M19.7818 68.1732C17.4476 67.0333 15.4119 65.4167 14.1234 63.1952C10.906 57.6477 12.6811 52.7659 14.1234 44.6666C15.5658 36.5673 14.4562 31.9074 11.5715 26.5818C8.68683 21.2562 11.2387 16.9292 14.1235 15.8197C16.2982 14.9833 22.8885 15.4868 25.2184 26.5818C27.5484 37.6768 30.7659 32.1293 30.7659 29.3555C30.7659 26.5818 25.2184 15.3759 25.2184 11.1598C25.2184 6.94373 26.9936 3.61524 30.7659 3.61524C34.5382 3.61524 35.4168 9.43435 35.5277 14.4271C35.6387 19.4198 39.0871 8.60797 39.6419 5.05758C40.7687 -2.15414 49.4054 1.72909 47.0755 7.05468C44.7456 12.3803 35.5367 31.1307 41.3061 30.2431C47.0755 29.3555 45.709 23.5287 47.0755 20.5905C49.2944 15.8197 57.3938 17.373 53.1777 27.8022C48.9616 38.2315 46.6317 39.2301 50.7368 37.5658C54.842 35.9016 56.8391 33.6826 56.8391 37.5658C56.8391 41.4491 49.7383 41.56 50.7368 48.217C51.7354 54.874 51.0194 60.9426 47.8521 64.6375C46.5207 66.1908 45.3283 67.1992 43.7418 68.1732M19.7818 68.1732C18.9734 69.2329 19.867 67.5465 18.8924 69.5408M43.7418 68.1732C44.3381 69.2495 42.953 67.5648 43.7418 69.5408M14.7891 79.7267C14.4272 82.0216 13.7008 86.3266 14.1234 88.7136C15.0044 93.6885 17.0714 96.7028 19.7818 98.514M14.7891 79.7267C9.05669 75.986 -1.55677 69.253 1.72734 64.6375C5.83247 58.8681 6.57882 60.1995 8.24307 61.1981C9.57446 61.9969 16.4644 65.3617 18.8924 69.5408M14.7891 79.7267C15.3037 76.4628 17.6847 72.0124 18.8924 69.5408M43.7418 69.5408C48.2638 65.0708 53.4254 62.3961 56.8391 61.1981C58.5837 60.5858 64.0548 66.1776 63.6663 68.1732C62.9518 71.843 53.6792 77.3456 47.8521 79.4618M43.7418 69.5408C44.6483 71.812 46.8946 75.7851 47.8521 79.4618M19.7818 98.514C18.8202 100.721 21.5066 108.58 23.8144 110.266C26.1221 111.952 30.7031 110.969 32.6262 110.266C34.5381 108.52 30.6327 105.437 29.6563 101.111M19.7818 98.514C22.5852 100.387 26.0769 100.974 29.6563 101.111M29.6563 101.111C30.0255 101.125 30.3955 101.134 30.7659 101.14C32.4184 101.165 32.6931 101.187 34.5381 100.918M34.5381 100.918C33.8354 102.657 37.2907 106.114 38.9771 107.091C40.6636 108.067 43.7418 107.091 45.4868 105.979C47.2318 104.868 52.2346 98.3153 43.7418 98.3153M34.5381 100.918C37.2136 100.528 41.478 99.6495 43.7418 98.3153M43.7418 98.3153C45.7237 97.1472 47.3626 95.5431 48.3343 93.3735C48.9302 92.0429 49.2752 90.4996 49.2944 88.7136C49.3229 86.0633 48.699 82.7134 47.8521 79.4618" stroke="var(--stroke-0, #FF6200)" stroke-width="2.22006"/>
</g>
<path id="Vector 149" d="M27.1311 57.0604C25.5297 54.1413 29.1633 59.5437 35.4528 57.0015C38.502 55.769 31.5039 65.0317 27.1311 57.0604Z" fill="var(--fill-0, #873400)" stroke="var(--stroke-0, #873400)" stroke-width="2.22006" stroke-linecap="round"/>
<path id="Vector 150" d="M20.4191 51.5242C22.5508 49.6451 24.3239 49.3573 26.1032 50.97" stroke="var(--stroke-0, #873400)" stroke-width="1.49571" stroke-linecap="round"/>
<path id="Vector 151" d="M37.2994 51.1662C39.3957 49.9888 40.9835 50.0925 42.3447 51.8116" stroke="var(--stroke-0, #873400)" stroke-width="1.49571" stroke-linecap="round"/>
</g>
<path id="Vector 151_2" d="M39.2712 89.026C39.2602 89.026 39.1505 89.026 38.9576 89.0511C38.7817 89.074 38.6719 89.2375 38.5816 89.3755C38.48 89.5308 38.5076 89.7622 38.527 89.9606C38.5358 90.0496 38.5854 90.1085 38.6563 90.1592C38.8137 90.2717 39.074 90.2889 39.3319 90.2572C39.5594 90.2293 39.6968 90.0248 39.8103 89.8818C39.9095 89.7568 39.9194 89.5565 39.8867 89.3418C39.8574 89.15 39.6465 89.0667 39.4667 89.0187C39.364 88.9913 39.228 89.0024 39.1396 89.0326C39.0512 89.0629 39.0119 89.1234 38.987 89.1961C38.9622 89.2689 38.953 89.352 38.9483 89.4378C38.9436 89.5236 38.9436 89.6095 38.9833 89.7556" stroke="var(--stroke-0, #FF6200)" stroke-width="0.943101" stroke-linecap="round"/>
<path id="Vector 152" d="M42.412 91.2109C42.2917 91.204 41.9491 91.2435 41.7386 91.3271C41.6086 91.3788 41.4969 91.4639 41.4129 91.5537C41.2346 91.7444 41.2741 92.3958 41.3505 92.8119C41.3753 92.9466 41.508 93.0121 41.6236 93.0649C42.0492 93.2593 42.5437 93.1068 42.7444 93.0168C42.9463 92.9263 43.185 92.785 43.467 92.5073C43.8793 92.1011 43.5686 91.3227 43.3908 91.0198C43.2806 90.8321 43.0432 90.7692 42.6019 90.6529C42.0923 90.5185 41.8839 90.7258 41.7087 90.8489C41.5271 90.9766 41.4551 91.261 41.4109 91.5979C41.3638 91.9577 41.4382 92.2319 41.5297 92.3084C41.7072 92.4569 42.2455 92.4403 42.6656 92.3425C43.066 92.2492 43.3445 91.6467 43.4478 91.3887C43.4667 91.3416 43.4533 91.2874 43.4325 91.2485C43.3435 91.0819 43.0641 91.1392 42.9085 91.1572C42.6803 91.1836 42.6622 91.5185 42.6365 91.652C42.6249 91.7121 42.6277 91.7587 42.6929 91.7824C42.758 91.8062 42.8883 91.8062 42.9746 91.7942C43.0609 91.7823 43.0994 91.7583 43.1623 91.7218" stroke="var(--stroke-0, #FF6200)" stroke-width="0.943101" stroke-linecap="round"/>
<path id="Vector 150_2" d="M41.8239 86.8918C41.8493 86.9593 41.9939 87.1286 42.1242 87.1749C42.187 87.1972 42.2524 87.1833 42.3066 87.1459C42.3608 87.1085 42.4042 87.0394 42.4298 86.9627C42.4554 86.886 42.4619 86.8038 42.4362 86.7456C42.3333 86.512 41.9904 86.5798 41.8567 86.6151C41.798 86.6306 41.7952 86.7211 41.789 86.8097C41.7827 86.8982 41.7827 87.0026 41.8633 87.0591C41.9438 87.1156 42.1049 87.1211 42.2068 87.0982C42.3087 87.0753 42.3467 87.0238 42.369 86.9507C42.3912 86.8775 42.3967 86.7842 42.3722 86.723C42.3477 86.6618 42.293 86.6355 42.2179 86.6219C42.1427 86.6084 42.0487 86.6084 41.9519 86.6084" stroke="var(--stroke-0, #FF6200)" stroke-width="1.79439" stroke-linecap="round"/>
<path id="Vector 151_3" d="M45.2426 90.3113C45.268 90.3788 45.4126 90.5481 45.5429 90.5945C45.6056 90.6168 45.6711 90.6028 45.7253 90.5654C45.7795 90.528 45.8229 90.4589 45.8485 90.3822C45.8741 90.3055 45.8806 90.2233 45.8549 90.1651C45.752 89.9315 45.4091 89.9993 45.2754 90.0346C45.2167 90.0501 45.2139 90.1406 45.2077 90.2292C45.2014 90.3178 45.2014 90.4222 45.282 90.4787C45.3625 90.5352 45.5235 90.5406 45.6255 90.5177C45.7274 90.4948 45.7654 90.4434 45.7877 90.3702C45.8099 90.2971 45.8154 90.2038 45.7909 90.1425C45.7664 90.0813 45.7117 90.055 45.6366 90.0415C45.5614 90.0279 45.4674 90.0279 45.3706 90.0279" stroke="var(--stroke-0, #FF6200)" stroke-width="1.79439" stroke-linecap="round"/>
</g>
</svg>
