<svg preserveAspectRatio="none" width="100%" height="100%" overflow="visible" style="display: block;" viewBox="0 0 20 12" fill="none" xmlns="http://www.w3.org/2000/svg">
<g id="chevron.down">
<path id="chevron.down_2" d="M10 12C10.3946 11.9883 10.7554 11.8356 11.0485 11.5068L19.6167 2.37182C19.8647 2.1135 20 1.78474 20 1.39726C20 0.622309 19.4138 0 18.6697 0C18.3089 0 17.9594 0.152642 17.7001 0.422701L10.0113 8.65362L2.29989 0.422701C2.04059 0.164384 1.70237 0 1.33033 0C0.586246 0 0 0.622309 0 1.39726C0 1.78474 0.135287 2.1135 0.383315 2.37182L8.9628 11.5068C9.26719 11.8356 9.60541 12 10 12Z" fill="var(--fill-0, #171717)"/>
</g>
</svg>
