<svg viewBox="0 0 24 24" fill="none" xmlns="http://www.w3.org/2000/svg"><svg viewBox="0 0 24 24" fill="none" xmlns="http://www.w3.org/2000/svg">



</svg>  <path d="M19.35 10.04C18.67 6.59 15.64 4 12 4c-1.48 0-2.85.43-4.01 1.17l1.46 1.46C10.21 5.23 11.08 5 12 5c3.04 0 5.5 2.46 5.5 5.5v.5H19c1.66 0 3 1.34 3 3 0 1.13-.64 2.11-1.56 2.62l.45 1.45C23.16 15.95 24 14.15 24 12c0-3.27-2.49-5.98-5.65-5.96zM3 5.5C3 4.12 4.12 3 5.5 3H6v2H5.5C4.67 5 4 5.67 4 6.5V19c0 .83.67 1.5 1.5 1.5H6v2h-.5C4.12 22.5 3 21.38 3 20V5.5zm4 12.5h12v2H7z" fill="#171717"/>  <path d="M15.67 4H8.33C7.6 4 7 4.6 7 5.33v13.34C7 19.4 7.6 20 8.33 20h7.34c.73 0 1.33-.6 1.33-1.33V5.33C17 4.6 16.4 4 15.67 4zm-1 15h-5.34V5.33h5.34v13.34z" fill="#171717"/>
</svg>
