<svg preserveAspectRatio="none" width="100%" height="100%" overflow="visible" style="display: block;" viewBox="0 0 24 23" fill="none" xmlns="http://www.w3.org/2000/svg">
<path id="text.bubble" d="M6.84786 23C7.46546 23 7.92054 22.6948 8.66817 22.0299L12.3846 18.7379H18.9074C22.1688 18.7379 24 16.8412 24 13.6038V5.13412C24 1.89668 22.1688 0 18.9074 0H5.09255C1.84199 0 0 1.89668 0 5.13412V13.6038C0 16.8521 1.89616 18.7379 5.0167 18.7379H5.46095V21.4085C5.46095 22.3787 5.9702 23 6.84786 23ZM7.38962 20.5583V17.4517C7.38962 16.8085 7.1079 16.5578 6.50113 16.5578H5.1684C3.13138 16.5578 2.15621 15.5223 2.15621 13.5384V5.19953C2.15621 3.21564 3.13138 2.18009 5.1684 2.18009H18.8424C20.8686 2.18009 21.8438 3.21564 21.8438 5.19953V13.5384C21.8438 15.5223 20.8686 16.5578 18.8424 16.5578H12.2655C11.6045 16.5578 11.2795 16.6668 10.8244 17.1464L7.38962 20.5583ZM6.49029 6.51848H17.4014C17.7698 6.51848 18.0731 6.21327 18.0731 5.83175C18.0731 5.46114 17.7698 5.15592 17.4014 5.15592H6.49029C6.1219 5.15592 5.82935 5.46114 5.82935 5.83175C5.82935 6.21327 6.1219 6.51848 6.49029 6.51848ZM6.49029 9.98483H17.4014C17.7698 9.98483 18.0731 9.66872 18.0731 9.2872C18.0731 8.92749 17.7698 8.61137 17.4014 8.61137H6.49029C6.1219 8.61137 5.82935 8.92749 5.82935 9.2872C5.82935 9.66872 6.1219 9.98483 6.49029 9.98483ZM6.49029 13.4403H13.5982C13.9774 13.4403 14.27 13.1351 14.27 12.7645C14.27 12.3829 13.9774 12.0777 13.5982 12.0777H6.49029C6.1219 12.0777 5.82935 12.3829 5.82935 12.7645C5.82935 13.1351 6.1219 13.4403 6.49029 13.4403Z" fill="var(--fill-0, #94A3B8)"/>
</svg>
